<?xml version="1.0" encoding="utf-8"?>
<!-- Generator: Adobe Illustrator 16.0.0, SVG Export Plug-In . SVG Version: 6.00 Build 0)  -->
<!DOCTYPE svg PUBLIC "-//W3C//DTD SVG 1.1//EN" "http://www.w3.org/Graphics/SVG/1.1/DTD/svg11.dtd">
<svg version="1.1" xmlns="http://www.w3.org/2000/svg" xmlns:xlink="http://www.w3.org/1999/xlink" x="0px" y="0px"
	 width="356.716px" height="137.669px" viewBox="0 0 356.716 137.669" enable-background="new 0 0 356.716 137.669"
	 xml:space="preserve">
<g id="Layer_1">
</g>
<g id="Layer_2">
</g>
<g id="Layer_3">
	<g>
		<g>
			<polygon fill="#D02327" points="0.012,73.007 5.935,73.007 5.935,45.464 37.647,45.464 37.647,73.007 43.57,73.007 43.57,14.829 
				37.647,14.829 37.647,40.05 5.923,40.05 5.923,14.829 0,14.829 			"/>
			<polygon fill="#D02327" points="101.428,73.007 107.991,73.007 83.02,14.829 77.262,14.829 52.111,73.007 58.604,73.007 
				79.928,21.392 			"/>
			<path fill="#D02327" d="M159.477,60.604c-1.854,2.857-4.479,5.133-7.57,6.562c-2.974,1.363-6.207,2.066-9.478,2.061
				c-3.469,0.053-6.907-0.646-10.081-2.049c-2.883-1.299-5.469-3.178-7.594-5.521c-2.104-2.355-3.736-5.094-4.81-8.066
				c-1.131-3.102-1.7-6.379-1.683-9.678c-0.016-3.289,0.537-6.557,1.635-9.656c1.043-2.973,2.652-5.717,4.738-8.078
				c2.126-2.348,4.716-4.229,7.606-5.521c3.194-1.414,6.659-2.113,10.152-2.049c1.759-0.014,3.512,0.205,5.212,0.652
				c1.551,0.414,3.053,0.994,4.478,1.729c1.286,0.664,2.481,1.492,3.554,2.465c0.905,0.828,1.701,1.768,2.37,2.795l4.94-3.625
				c-1.026-1.463-2.277-2.754-3.708-3.826c-1.513-1.168-3.154-2.158-4.894-2.949c-1.863-0.816-3.803-1.443-5.792-1.871
				c-2.064-0.441-4.169-0.664-6.278-0.664c-4.144-0.037-8.252,0.756-12.084,2.334c-7.277,2.951-13.045,8.732-15.98,16.016
				c-1.566,3.893-2.348,8.055-2.299,12.25c-0.031,4.18,0.744,8.326,2.287,12.213c1.426,3.609,3.566,6.893,6.29,9.654
				c2.739,2.758,6.013,4.926,9.619,6.375c3.863,1.566,7.997,2.359,12.167,2.332c2.451,0.02,4.896-0.275,7.273-0.877
				c2.114-0.537,4.156-1.332,6.077-2.369c1.756-0.945,3.384-2.113,4.845-3.471c1.339-1.26,2.531-2.666,3.555-4.193L159.477,60.604z"
				/>
			<polygon fill="#D02327" points="180.184,14.829 174.26,14.829 174.26,73.007 180.184,73.007 180.184,42.028 180.254,42.028 
				209.325,73.007 218.033,73.007 187.055,41.21 216.397,14.829 207.927,14.829 180.23,40.962 180.159,40.962 			"/>
			<path fill="#D02327" d="M231.319,0v87.321h125.396V0H231.319z M284.331,72.72h-37.066V14.601h36.072v5.248h-30.149v19.926h28.194
				v5.248h-28.194v22.449h31.144V72.72z M343.125,56.372c-1.706,3.49-4.128,6.582-7.107,9.074c-2.914,2.43-6.264,4.287-9.868,5.473
				c-3.508,1.182-7.185,1.789-10.886,1.801h-19.346V14.601h19.321c3.706-0.004,7.39,0.584,10.91,1.742
				c3.604,1.186,6.954,3.043,9.868,5.473c2.986,2.5,5.409,5.605,7.107,9.109c1.884,3.969,2.816,8.32,2.725,12.711
				C345.951,48.036,345.017,52.397,343.125,56.372z"/>
		</g>
		<path fill="#D02327" d="M333.186,27.241c-2.301-2.33-5.054-4.164-8.09-5.391c-3.647-1.439-7.547-2.139-11.468-2.061h-11.752
			l-0.036,47.74h11.753c3.92,0.08,7.819-0.621,11.467-2.061c3.038-1.223,5.792-3.057,8.091-5.391
			c2.131-2.186,3.78-4.793,4.847-7.652c2.133-5.67,2.133-11.922,0-17.592C336.933,31.999,335.295,29.415,333.186,27.241z"/>
	</g>
	<g>
		<g>
			<path fill="#1877BD" d="M58.03,111.443h3.407c0.531,0,1.034,0.051,1.517,0.154c0.481,0.103,0.909,0.276,1.282,0.519
				c0.374,0.243,0.669,0.568,0.891,0.974c0.223,0.406,0.333,0.906,0.333,1.501c0,0.626-0.119,1.146-0.357,1.557
				c-0.237,0.411-0.544,0.736-0.915,0.973c-0.372,0.239-0.783,0.406-1.227,0.503c-0.441,0.097-0.863,0.146-1.265,0.146h-2.302v5.158
				H58.03V111.443z M59.395,116.504h2.302c0.683,0,1.236-0.153,1.664-0.462s0.641-0.787,0.641-1.436
				c0-0.649-0.213-1.127-0.641-1.436c-0.428-0.308-0.981-0.462-1.664-0.462h-2.302V116.504z"/>
			<path fill="#1877BD" d="M67.424,117.137c0-0.346-0.013-0.671-0.033-0.973c-0.021-0.303-0.033-0.579-0.033-0.828h1.201
				c0,0.206,0.007,0.412,0.017,0.617c0.011,0.205,0.017,0.417,0.017,0.632h0.032c0.086-0.183,0.208-0.361,0.364-0.535
				c0.157-0.172,0.345-0.327,0.56-0.462c0.217-0.135,0.459-0.243,0.73-0.323c0.271-0.082,0.562-0.123,0.876-0.123
				c0.087,0,0.172,0.006,0.259,0.017c0.087,0.01,0.175,0.031,0.261,0.064l-0.081,1.281c-0.217-0.065-0.445-0.096-0.682-0.096
				c-0.779,0-1.345,0.251-1.694,0.753c-0.353,0.503-0.527,1.193-0.527,2.067v3.699h-1.266V117.137z"/>
			<path fill="#1877BD" d="M79.621,121.548c-0.453,0.584-0.952,0.994-1.493,1.225c-0.539,0.232-1.167,0.35-1.881,0.35
				c-0.595,0-1.132-0.105-1.607-0.318c-0.474-0.21-0.876-0.493-1.205-0.85c-0.331-0.357-0.585-0.778-0.765-1.266
				c-0.178-0.486-0.268-1.006-0.268-1.557c0-0.584,0.098-1.122,0.294-1.614c0.195-0.492,0.463-0.914,0.81-1.266
				c0.347-0.35,0.758-0.624,1.233-0.818c0.475-0.194,0.994-0.292,1.557-0.292c0.53,0,1.018,0.089,1.461,0.268
				c0.441,0.178,0.823,0.438,1.143,0.779c0.319,0.34,0.564,0.757,0.739,1.249c0.172,0.493,0.259,1.052,0.259,1.679v0.405h-6.131
				c0.021,0.325,0.098,0.636,0.233,0.933c0.138,0.298,0.312,0.557,0.528,0.779c0.217,0.221,0.469,0.397,0.763,0.526
				c0.291,0.13,0.609,0.195,0.956,0.195c0.552,0,1.016-0.098,1.396-0.292c0.379-0.195,0.718-0.481,1.023-0.859L79.621,121.548z
				 M78.536,118.45c-0.024-0.648-0.233-1.168-0.634-1.557c-0.401-0.39-0.952-0.584-1.655-0.584c-0.704,0-1.27,0.194-1.703,0.584
				c-0.433,0.389-0.691,0.909-0.777,1.557H78.536z"/>
			<path fill="#1877BD" d="M82.021,120.933c0.249,0.313,0.523,0.563,0.82,0.747c0.296,0.184,0.672,0.276,1.125,0.276
				c0.195,0,0.394-0.022,0.594-0.065c0.2-0.044,0.382-0.114,0.543-0.211c0.162-0.098,0.291-0.22,0.39-0.365
				c0.097-0.146,0.146-0.322,0.146-0.527c0-0.205-0.048-0.374-0.14-0.503c-0.091-0.13-0.214-0.241-0.364-0.333
				c-0.151-0.091-0.324-0.164-0.518-0.218c-0.196-0.054-0.395-0.104-0.6-0.146c-0.357-0.076-0.698-0.162-1.023-0.26
				c-0.324-0.098-0.607-0.224-0.851-0.381c-0.244-0.157-0.439-0.36-0.585-0.608s-0.217-0.567-0.217-0.958
				c0-0.367,0.078-0.692,0.24-0.972c0.162-0.282,0.379-0.514,0.65-0.698c0.271-0.184,0.572-0.324,0.909-0.422
				c0.334-0.098,0.681-0.146,1.037-0.146c0.542,0,1.042,0.108,1.499,0.325c0.462,0.216,0.82,0.568,1.08,1.055l-1.055,0.697
				c-0.162-0.27-0.376-0.49-0.64-0.656c-0.267-0.167-0.589-0.252-0.966-0.252c-0.172,0-0.35,0.021-0.527,0.065
				c-0.177,0.043-0.338,0.108-0.479,0.193c-0.14,0.088-0.255,0.198-0.349,0.333c-0.091,0.135-0.137,0.29-0.137,0.463
				c0,0.162,0.05,0.3,0.154,0.414c0.102,0.112,0.242,0.212,0.421,0.299c0.179,0.087,0.384,0.163,0.616,0.228
				c0.231,0.064,0.473,0.119,0.724,0.162c0.334,0.065,0.653,0.149,0.954,0.252c0.304,0.103,0.569,0.241,0.797,0.414
				c0.227,0.173,0.405,0.389,0.535,0.648c0.129,0.259,0.195,0.579,0.195,0.958c0,0.433-0.087,0.799-0.261,1.102
				c-0.173,0.304-0.403,0.549-0.69,0.739c-0.285,0.188-0.609,0.326-0.972,0.412c-0.363,0.087-0.732,0.131-1.113,0.131
				c-0.646,0-1.206-0.101-1.677-0.301c-0.471-0.2-0.897-0.57-1.273-1.11L82.021,120.933z"/>
			<path fill="#1877BD" d="M95.55,121.548c-0.454,0.584-0.951,0.994-1.493,1.225c-0.54,0.232-1.167,0.35-1.881,0.35
				c-0.595,0-1.13-0.105-1.604-0.318c-0.477-0.21-0.88-0.493-1.21-0.85c-0.331-0.357-0.583-0.778-0.761-1.266
				c-0.179-0.486-0.27-1.006-0.27-1.557c0-0.584,0.099-1.122,0.291-1.614c0.195-0.492,0.468-0.914,0.812-1.266
				c0.347-0.35,0.756-0.624,1.232-0.818c0.476-0.194,0.995-0.292,1.558-0.292c0.53,0,1.016,0.089,1.459,0.268
				c0.444,0.178,0.827,0.438,1.144,0.779c0.321,0.34,0.566,0.757,0.738,1.249c0.175,0.493,0.261,1.052,0.261,1.679v0.405h-6.131
				c0.021,0.325,0.1,0.636,0.234,0.933c0.136,0.298,0.31,0.557,0.526,0.779c0.216,0.221,0.473,0.397,0.762,0.526
				c0.292,0.13,0.611,0.195,0.958,0.195c0.553,0,1.018-0.098,1.395-0.292c0.379-0.195,0.721-0.481,1.022-0.859L95.55,121.548z
				 M94.463,118.45c-0.021-0.648-0.232-1.168-0.633-1.557c-0.4-0.39-0.95-0.584-1.654-0.584c-0.703,0-1.271,0.194-1.702,0.584
				c-0.435,0.389-0.692,0.909-0.778,1.557H94.463z"/>
			<path fill="#1877BD" d="M97.787,117.137c0-0.346-0.01-0.671-0.03-0.973c-0.023-0.303-0.033-0.579-0.033-0.828h1.201
				c0,0.206,0.003,0.412,0.017,0.617c0.01,0.205,0.015,0.417,0.015,0.632h0.033c0.087-0.183,0.207-0.361,0.364-0.535
				c0.156-0.172,0.342-0.327,0.56-0.462c0.216-0.135,0.46-0.243,0.731-0.323c0.269-0.082,0.56-0.123,0.876-0.123
				c0.497,0,0.926,0.075,1.287,0.227c0.364,0.152,0.664,0.363,0.9,0.633c0.239,0.271,0.416,0.597,0.53,0.981
				c0.11,0.384,0.169,0.803,0.169,1.257v4.688h-1.267v-4.559c0-0.637-0.14-1.14-0.423-1.508c-0.278-0.368-0.717-0.551-1.312-0.551
				c-0.412,0-0.767,0.071-1.063,0.211c-0.296,0.14-0.54,0.34-0.729,0.6c-0.189,0.259-0.331,0.568-0.422,0.925
				c-0.093,0.356-0.138,0.751-0.138,1.183v3.699h-1.267V117.137z"/>
			<path fill="#1877BD" d="M110.958,116.408h-2.235v3.795c0,0.248,0.003,0.479,0.014,0.689c0.014,0.21,0.054,0.395,0.13,0.551
				c0.075,0.157,0.189,0.281,0.341,0.374c0.152,0.091,0.367,0.138,0.649,0.138c0.184,0,0.374-0.022,0.568-0.065
				c0.193-0.044,0.378-0.108,0.553-0.195l0.048,1.152c-0.216,0.097-0.458,0.167-0.724,0.21c-0.266,0.044-0.517,0.066-0.755,0.066
				c-0.453,0-0.815-0.06-1.087-0.179c-0.27-0.119-0.479-0.287-0.633-0.502c-0.148-0.217-0.251-0.484-0.299-0.803
				c-0.049-0.319-0.072-0.674-0.072-1.063v-4.168h-1.655v-1.072h1.655v-2.157h1.267v2.157h2.235V116.408z"/>
			<path fill="#1877BD" d="M119.297,121.548c-0.453,0.584-0.952,0.994-1.492,1.225c-0.54,0.232-1.168,0.35-1.882,0.35
				c-0.595,0-1.132-0.105-1.606-0.318c-0.475-0.21-0.878-0.493-1.206-0.85c-0.33-0.357-0.585-0.778-0.766-1.266
				c-0.177-0.486-0.267-1.006-0.267-1.557c0-0.584,0.098-1.122,0.293-1.614c0.195-0.492,0.464-0.914,0.811-1.266
				c0.347-0.35,0.758-0.624,1.232-0.818c0.476-0.194,0.995-0.292,1.559-0.292c0.529,0,1.017,0.089,1.46,0.268
				c0.441,0.178,0.823,0.438,1.143,0.779c0.32,0.34,0.564,0.757,0.739,1.249c0.172,0.493,0.259,1.052,0.259,1.679v0.405h-6.131
				c0.021,0.325,0.099,0.636,0.233,0.933c0.137,0.298,0.312,0.557,0.528,0.779c0.218,0.221,0.47,0.397,0.762,0.526
				c0.293,0.13,0.61,0.195,0.957,0.195c0.552,0,1.015-0.098,1.395-0.292c0.379-0.195,0.719-0.481,1.023-0.859L119.297,121.548z
				 M118.211,118.45c-0.023-0.648-0.233-1.168-0.634-1.557c-0.4-0.39-0.951-0.584-1.654-0.584c-0.704,0-1.271,0.194-1.704,0.584
				c-0.432,0.389-0.69,0.909-0.776,1.557H118.211z"/>
			<path fill="#1877BD" d="M127.845,121.582h-0.031c-0.238,0.433-0.613,0.798-1.128,1.094c-0.514,0.298-1.111,0.447-1.793,0.447
				c-0.529,0-1.027-0.101-1.49-0.301c-0.466-0.2-0.869-0.478-1.208-0.835c-0.344-0.356-0.61-0.779-0.806-1.265
				c-0.193-0.487-0.292-1.016-0.292-1.59c0-0.573,0.099-1.103,0.292-1.589c0.195-0.487,0.467-0.909,0.812-1.266
				c0.347-0.357,0.765-0.636,1.257-0.836c0.49-0.198,1.035-0.299,1.631-0.299c0.552,0,1.057,0.113,1.517,0.341
				c0.46,0.227,0.862,0.546,1.209,0.957h0.031v-5.774h1.265v12.263h-1.265V121.582z M127.845,119.132c0-0.4-0.06-0.771-0.188-1.111
				c-0.122-0.341-0.305-0.638-0.543-0.893c-0.237-0.254-0.521-0.455-0.851-0.601c-0.33-0.145-0.699-0.218-1.112-0.218
				c-0.41,0-0.781,0.073-1.109,0.218c-0.33,0.146-0.615,0.347-0.854,0.601c-0.236,0.254-0.418,0.552-0.543,0.893
				c-0.124,0.34-0.185,0.711-0.185,1.111c0,0.4,0.061,0.771,0.185,1.111c0.125,0.34,0.307,0.638,0.543,0.893
				c0.238,0.253,0.523,0.454,0.854,0.599c0.328,0.146,0.699,0.22,1.109,0.22c0.413,0,0.782-0.074,1.112-0.22
				c0.329-0.146,0.613-0.346,0.851-0.599c0.238-0.254,0.421-0.552,0.543-0.893C127.785,119.903,127.845,119.533,127.845,119.132z"/>
			<path fill="#1877BD" d="M135.891,110.665h1.266v5.774h0.032c0.346-0.411,0.748-0.729,1.209-0.957
				c0.458-0.228,0.964-0.341,1.516-0.341c0.595,0,1.138,0.101,1.631,0.299c0.491,0.201,0.91,0.479,1.257,0.836
				c0.347,0.356,0.617,0.779,0.811,1.266c0.195,0.486,0.291,1.016,0.291,1.589c0,0.574-0.096,1.103-0.291,1.59
				c-0.193,0.486-0.463,0.908-0.802,1.265c-0.341,0.357-0.745,0.635-1.21,0.835c-0.464,0.201-0.961,0.301-1.491,0.301
				c-0.683,0-1.281-0.149-1.792-0.447c-0.516-0.296-0.89-0.662-1.128-1.094h-0.032v1.346h-1.266V110.665z M137.156,119.132
				c0,0.4,0.062,0.771,0.187,1.111c0.124,0.34,0.306,0.638,0.544,0.893c0.237,0.253,0.521,0.454,0.851,0.599
				c0.328,0.146,0.7,0.22,1.111,0.22s0.78-0.074,1.11-0.22c0.33-0.146,0.613-0.346,0.852-0.599c0.238-0.254,0.42-0.552,0.544-0.893
				c0.126-0.341,0.188-0.711,0.188-1.111c0-0.4-0.062-0.771-0.188-1.111c-0.124-0.341-0.306-0.638-0.544-0.893
				s-0.521-0.455-0.852-0.601c-0.33-0.145-0.699-0.218-1.11-0.218s-0.783,0.073-1.111,0.218c-0.33,0.146-0.613,0.347-0.851,0.601
				c-0.238,0.254-0.42,0.552-0.544,0.893C137.218,118.362,137.156,118.732,137.156,119.132z"/>
			<path fill="#1877BD" d="M148.657,124.663c-0.131,0.325-0.265,0.619-0.397,0.884c-0.135,0.265-0.297,0.493-0.486,0.682
				c-0.19,0.19-0.417,0.336-0.682,0.438c-0.266,0.103-0.588,0.154-0.965,0.154c-0.186,0-0.376-0.011-0.576-0.032
				c-0.2-0.022-0.387-0.076-0.558-0.163l0.159-1.103c0.129,0.053,0.265,0.089,0.405,0.105c0.142,0.016,0.304,0.024,0.488,0.024
				c0.41,0,0.714-0.113,0.908-0.341c0.192-0.227,0.362-0.53,0.501-0.909l0.52-1.426l-3.146-7.642h1.477l2.353,5.953h0.031
				l2.255-5.953h1.38L148.657,124.663z"/>
		</g>
		<g id="Logo_Clearspace">
			<g id="Logo">
				<path id="_" fill="#1877BD" d="M289.393,134.378c-0.017-0.361-0.324-0.641-0.686-0.624c-0.03,0.001-0.06,0.005-0.089,0.01
					h-0.697v2.093h0.37v-0.872h0.271l0.488,0.872h0.454l-0.565-0.914C289.211,134.895,289.404,134.653,289.393,134.378z
					 M288.262,134.678v-0.579h0.343c0.18-0.043,0.361,0.067,0.404,0.247c0.003,0.013,0.006,0.026,0.007,0.04
					c-0.028,0.202-0.216,0.342-0.418,0.314c-0.012-0.002-0.023-0.004-0.035-0.007h-0.301V134.678z M288.611,132.969
					c-1.017,0.019-1.827,0.859-1.807,1.876c0.019,1.018,0.859,1.827,1.877,1.808c1.009-0.019,1.814-0.847,1.807-1.856
					c-0.011-1.021-0.848-1.84-1.87-1.828C288.616,132.969,288.614,132.969,288.611,132.969L288.611,132.969z M288.611,136.381
					c-0.863,0-1.563-0.7-1.563-1.563c0-0.863,0.7-1.563,1.563-1.563s1.563,0.7,1.563,1.563l0,0
					C290.17,135.68,289.474,136.377,288.611,136.381z"/>
				<path id="Intuit" fill="#1877BD" d="M163.476,111.258h6.28v25.124h-6.28V111.258z M190.058,110.525
					c-3.288-0.049-6.312,1.79-7.781,4.731h-0.104v-4.027h-5.967v25.124h6.28v-13.818c0-3.35,1.885-6.804,5.862-6.804
					c3.979,0,4.711,3.72,4.711,6.7v13.958h6.281v-15.702c0-5.137-2.722-10.161-9.262-10.161H190.058z M244.114,125.076
					c0,3.35-1.884,6.804-5.861,6.804s-4.711-3.712-4.711-6.7v-13.958h-6.281v15.703c0,5.129,2.723,10.154,9.268,10.154
					c3.301,0.049,6.335-1.806,7.796-4.767h0.104v4.034h5.967v-25.124h-6.281v13.818V125.076z M256.822,136.381h6.282v-25.124h-6.282
					V136.381z M202.521,116.841h7.041v19.541h6.281v-19.541h7.041v-5.583h-20.328v5.583H202.521z M212.703,107.999
					c2.097,0,3.797-1.699,3.797-3.796c0-2.097-1.7-3.796-3.797-3.796s-3.796,1.7-3.796,3.796c0.015,2.094,1.724,3.78,3.817,3.769
					L212.703,107.999z M267.508,111.271v5.583h7.041v19.541h6.281v-19.541h7.041v-5.583h-20.343H267.508z M277.689,107.999
					c2.097,0,3.797-1.699,3.797-3.796c0-2.097-1.7-3.796-3.797-3.796s-3.796,1.7-3.796,3.796c0.015,2.094,1.723,3.78,3.816,3.769
					L277.689,107.999z"/>
			</g>
		</g>
	</g>
</g>
</svg>
