<svg id="Layer_1" xmlns="http://www.w3.org/2000/svg" viewBox="0 0 1452.8 528.18"><defs><style>.cls-1{fill:#ff02af;}</style></defs><title>Artboard 12</title><path class="cls-1" d="M509.14,273.37c3.09-1.79,6.41-3.29,9.18-5.49,11.56-9.16,15.21-26.32,8.52-39.54-6.36-12.54-17.05-18.86-30.7-19.24-19.62-.54-39.28-.18-58.92-.19a10,10,0,0,0-1.35.16v110.2h15.61V276.56h38.85l28.92,42.66h17.6l-30.19-44.77A23.83,23.83,0,0,0,509.14,273.37Zm-16.57-11.78c-13.14.12-26.28.06-39.41.05-.48,0-1-.06-1.63-.1V224.32a2.1,2.1,0,0,1,.56-.21c14.54,0,29.08-.17,43.6.21,7.17.19,13.2,3.41,16.68,10.09a18.19,18.19,0,0,1-11.55,26A34.94,34.94,0,0,1,492.57,261.59Z"/><path class="cls-1" d="M720.31,273.93h33.11v18.7a39.85,39.85,0,0,1-12.64,8.71,55,55,0,0,1-36.23,2.7c-10.85-2.76-19.38-8.89-24.83-18.87-5-9.13-6.2-18.92-4.41-29,2.15-12.16,8.27-21.81,19.18-27.91,11.2-6.26,23.2-7.23,35.51-4.17a33.16,33.16,0,0,1,22.28,17.42c.25.47.56.91.9,1.46l13.21-7.66c-.28-.58-.45-1-.65-1.32a46.85,46.85,0,0,0-22.54-21c-16.15-7.26-32.69-7.52-49.17-1.4-15.36,5.7-25.79,16.65-31.49,32a59.83,59.83,0,0,0-2.91,30.75c1.88,11.71,6.79,22,15.28,30.28,10.36,10.17,23.17,14.94,37.4,16.15a70.84,70.84,0,0,0,32.75-4.54,65.83,65.83,0,0,0,22.76-15.41V259.56H720.31Z"/><path class="cls-1" d="M628.24,209v2.29q0,30.79,0,61.58a60.13,60.13,0,0,1-.48,8.38c-1.47,10.3-6.59,18.07-16.54,21.8a44.67,44.67,0,0,1-31.6.06,24.67,24.67,0,0,1-15.38-15.55,41.32,41.32,0,0,1-2.06-14.21q0-31.06,0-62.13V209H546.43v1.83q0,31.6,0,63.22a58.29,58.29,0,0,0,2.15,16.61C552,302,558.78,310.5,569.45,315.44c15.6,7.21,31.65,7.39,47.74,1.66a38.3,38.3,0,0,0,19.18-14.81,43.72,43.72,0,0,0,7.44-24.64c.19-22.48.11-44.95.13-67.43a7.63,7.63,0,0,0-.18-1.18Z"/><path class="cls-1" d="M872.17,265.72c-1.79-.91-3.7-1.58-5.73-2.44.6-.42,1-.71,1.38-1a23.25,23.25,0,0,0,8.2-8.88c10-19.39-3.66-42.8-25.49-43.23-20-.39-40-.14-60-.17-.28,0-.57.08-.92.12v110h1.86q31.83,0,63.66,0a44.25,44.25,0,0,0,5.27-.33c15.67-1.83,26.24-13.08,26.66-28.74C887.36,279.64,882.48,271,872.17,265.72Zm-66.88-40.49c.62,0,1.2-.11,1.78-.11h39.59c5.41,0,10.31,1.41,13.63,6,3.8,5.25,4.14,11.13,1.92,17-2.15,5.71-6.61,8.67-12.63,9.32-.73.07-1.45.2-2.18.2h-41c-.29,0-.59-.06-1.06-.11ZM870.85,293c-1.63,7.59-7.21,12-15.65,12.08-16.3.16-32.6,0-48.9,0a7.06,7.06,0,0,1-1-.14V272.36a4.11,4.11,0,0,1,.56-.12c16.73,0,33.46-.16,50.18.07C867.52,272.47,873.1,282.4,870.85,293Z"/><path class="cls-1" d="M1110.28,294.78l-69.14-84.64H1027V320.06h15.72V236.18l.38-.13,68.73,84H1126V210.17h-15.69Z"/><path class="cls-1" d="M1198.16,256.28c15.32-15.3,30.56-30.4,45.73-45.58l-.38-.53h-19.22L1162.14,272l-.45-.28V210.19h-15.51V320h15.61V293.46l25.57-26.37,40.21,53h17.56l.41-.48Z"/><path class="cls-1" d="M946.82,210.09l-.79,1.65-19.66,42.61Q911.76,286,897.16,317.7a16.41,16.41,0,0,0-.69,2.36H913l10.81-24h60.54q5.46,12.14,10.82,24.08h16.91c-17-36.93-33.89-73.48-50.72-110Zm-16,70.61c7.74-17.25,15.41-34.32,23.26-51.82l23.41,51.82Z"/><path class="cls-1" d="M360.05,205.23H320.77s3.59,5.21,7.1,15.67h32.18a42.19,42.19,0,0,1,0,84.38H328.61c-3.72,10.93-7.84,15.67-7.84,15.67h39.28a57.86,57.86,0,0,0,0-115.72Z"/><path class="cls-1" d="M312.14,205.23H266.67a57.85,57.85,0,0,0-56.74,68.66c.13.72.29,1.44.45,2.15s.39,1.63.61,2.43a54.93,54.93,0,0,0,1.9,5.73c.53,1.35,1.09,2.68,1.71,4a58,58,0,0,0,28,27.51A57.38,57.38,0,0,0,266.67,321h45.47s13.66-15.67,13.66-55.87S312.14,205.23,312.14,205.23Zm-84.2,69.45c-.15-.59-.33-1.15-.47-1.75-2.48-11-1.34-21.83,4.5-31.69,7.81-13.2,20.05-19.92,34.9-20.19C266.87,221.05,232.61,240.2,227.94,274.68Z"/></svg>