<?xml version="1.0" encoding="utf-8"?>
<!-- Generator: Adobe Illustrator 16.0.0, SVG Export Plug-In . SVG Version: 6.00 Build 0)  -->
<!DOCTYPE svg PUBLIC "-//W3C//DTD SVG 1.1//EN" "http://www.w3.org/Graphics/SVG/1.1/DTD/svg11.dtd">
<svg version="1.1" id="Layer_1" xmlns="http://www.w3.org/2000/svg" xmlns:xlink="http://www.w3.org/1999/xlink" x="0px" y="0px"
	 width="356.716px" height="87.321px" viewBox="0 0 356.716 87.321" enable-background="new 0 0 356.716 87.321"
	 xml:space="preserve">
<rect x="231.32" fill="#D02327" width="125.396" height="87.321"/>
<polygon fill="#D02327" points="0.012,73.007 5.935,73.007 5.935,45.464 37.648,45.464 37.648,73.007 43.571,73.007 43.571,14.829 
	37.648,14.829 37.648,40.05 5.923,40.05 5.923,14.829 0,14.829 "/>
<polygon fill="#D02327" points="101.429,73.007 107.992,73.007 83.02,14.829 77.262,14.829 52.112,73.007 58.604,73.007 
	79.928,21.392 "/>
<path fill="#D02327" d="M159.477,60.604c-1.854,2.857-4.479,5.133-7.57,6.563c-2.974,1.362-6.207,2.065-9.478,2.061
	c-3.469,0.052-6.908-0.647-10.082-2.05c-2.883-1.299-5.468-3.178-7.593-5.521c-2.104-2.356-3.737-5.095-4.81-8.067
	c-1.131-3.101-1.7-6.378-1.682-9.678c-0.017-3.289,0.537-6.556,1.635-9.655c1.043-2.974,2.652-5.717,4.738-8.079
	c2.125-2.348,4.715-4.228,7.606-5.521c3.194-1.415,6.659-2.113,10.152-2.049c1.758-0.015,3.512,0.204,5.212,0.651
	c1.55,0.414,3.052,0.994,4.477,1.729c1.286,0.664,2.481,1.492,3.554,2.464c0.905,0.828,1.701,1.768,2.37,2.796l4.94-3.625
	c-1.026-1.464-2.277-2.755-3.708-3.826c-1.513-1.168-3.154-2.158-4.894-2.95c-1.863-0.815-3.803-1.443-5.792-1.871
	c-2.064-0.441-4.168-0.664-6.279-0.664c-4.143-0.037-8.252,0.756-12.083,2.334c-7.277,2.952-13.044,8.732-15.981,16.017
	c-1.566,3.892-2.347,8.055-2.298,12.249c-0.032,4.181,0.745,8.327,2.287,12.214c1.427,3.608,3.566,6.892,6.291,9.654
	c2.739,2.757,6.013,4.926,9.619,6.374c3.863,1.567,7.997,2.36,12.167,2.333c2.452,0.02,4.896-0.275,7.273-0.877
	c2.115-0.537,4.157-1.333,6.078-2.369c1.756-0.946,3.384-2.113,4.845-3.471c1.339-1.26,2.531-2.666,3.555-4.193L159.477,60.604z"/>
<polygon fill="#D02327" points="180.184,14.829 174.26,14.829 174.26,73.007 180.184,73.007 180.184,42.028 180.254,42.028 
	209.326,73.007 218.034,73.007 187.055,41.21 216.398,14.829 207.927,14.829 180.231,40.962 180.16,40.962 "/>
<g>
	<path fill="#FFFFFF" d="M253.188,67.472h31.144v5.248h-37.066V14.601h36.072v5.248h-30.149v19.926h28.194v5.247h-28.194V67.472z"/>
	<path fill="#FFFFFF" d="M295.918,14.601h19.321c3.706-0.005,7.39,0.583,10.91,1.742c3.604,1.186,6.954,3.043,9.868,5.473
		c2.986,2.5,5.409,5.605,7.107,9.109c1.884,3.968,2.816,8.319,2.725,12.711c0.102,4.399-0.833,8.762-2.725,12.735
		c-1.706,3.49-4.128,6.582-7.107,9.074c-2.914,2.43-6.264,4.287-9.868,5.473c-3.508,1.182-7.185,1.79-10.886,1.802h-19.346V14.601z
		 M301.84,67.53h11.753c3.92,0.079,7.819-0.622,11.467-2.062c3.038-1.222,5.792-3.057,8.091-5.391
		c2.131-2.185,3.78-4.792,4.847-7.652c2.133-5.67,2.133-11.921,0-17.591c-1.064-2.836-2.702-5.421-4.812-7.595
		c-2.301-2.329-5.054-4.163-8.09-5.39c-3.647-1.44-7.547-2.14-11.468-2.062h-11.752L301.84,67.53z"/>
</g>
</svg>
