<svg id="Layer_1" xmlns="http://www.w3.org/2000/svg" xmlns:xlink="http://www.w3.org/1999/xlink" viewBox="0 0 364.5 108"><defs><style>.cls-1,.cls-6{fill:none;}.cls-2{clip-path:url(#clip-path);}.cls-3{fill:#231f20;}.cls-4{fill:#fff;}.cls-5{fill:#be1e2d;}.cls-6{stroke:#000;stroke-miterlimit:10;stroke-width:0.5px;}</style><clipPath id="clip-path"><rect class="cls-1" width="364.5" height="108"/></clipPath></defs><title>Artboard 1IDXLABS</title><g class="cls-2"><path class="cls-3" d="M252.91,54a50.4,50.4,0,1,1-50.4-50.4A50.41,50.41,0,0,1,252.91,54"/><polygon class="cls-4" points="230.37 47.37 231.33 45.96 232.09 44.68 232.67 43.47 233.12 41.93 234.97 42.06 236.82 42.13 238.55 42.06 240.15 41.93 237.66 44.81 234.27 49.16 228.51 56.83 234.14 64.88 235.74 67.18 237.46 69.35 238.55 70.69 240.21 72.3 237.97 71.97 235.8 71.85 233.69 71.97 231.52 72.3 231.26 71.21 230.81 70.12 230.11 68.72 228.9 66.73 225.25 61.11 220.59 67.89 219.63 69.23 219.05 70.31 218.61 71.21 218.35 72.23 216.37 72.04 214.45 71.91 212.66 71.97 210.87 72.23 211.96 71.34 212.66 70.63 213.43 69.74 216.37 66.09 222.83 57.53 217.78 50.05 214.39 45.38 212.98 43.72 211.26 41.93 213.49 42.13 215.73 42.25 217.97 42.13 220.21 41.93 220.08 42.51 220.14 43.15 220.46 43.91 221.87 46.41 226.09 53.18 230.37 47.37"/><polygon class="cls-4" points="166.01 53.31 165.82 47.11 165.63 44.88 165.31 42.96 164.87 41.81 166.53 42 168.19 42.06 169.85 42 171.51 41.81 170.87 43.53 170.68 44.36 170.56 45.45 170.36 48.39 170.3 53.25 170.3 56.44 170.3 61.81 170.43 67.06 170.56 68.97 170.75 70.31 171 71.28 171.45 72.3 169.79 72.1 168.12 72.04 166.46 72.1 164.8 72.3 165.18 71.53 165.44 70.57 165.63 69.16 165.82 67.06 165.95 61.81 166.01 56.51 166.01 53.31"/><polygon class="cls-4" points="191.44 66.86 191.44 68.97 192.01 68.46 193.42 66.99 194.82 65.26 196.1 63.41 195.46 66.8 195.27 69.03 195.4 69.99 195.65 70.76 196.04 71.4 196.68 71.91 197.44 72.17 198.28 72.3 198.98 72.23 199.68 72.1 200.45 71.78 201.21 71.46 202.81 70.38 204.47 68.91 206.26 67.05 207.67 65.2 208.12 64.5 207.35 63.73 205.75 65.65 204.54 66.93 203.71 67.69 202.94 68.2 202.3 68.52 201.79 68.65 201.41 68.59 200.96 68.39 200.77 68.2 200.64 67.95 200.51 67.18 200.64 66.42 200.83 65.39 205.24 49.48 211.63 25.51 211.7 25.12 211.38 24.8 205.43 25.82 200.96 26.53 200.96 27.61 202.24 27.49 203.26 27.49 204.09 27.55 204.66 27.81 204.86 28.06 205.05 28.38 205.18 29.47 205.11 30.24 204.86 31.26 201.09 44.94 200.64 43.47 200.38 42.89 200.06 42.45 199.43 41.87 198.59 41.48 197.57 41.23 196.36 41.17 194.76 41.29 193.16 41.68 191.56 42.25 191.44 42.32 191.44 45 191.69 44.81 192.91 43.91 194.18 43.27 195.4 42.89 196.68 42.76 197.63 42.83 198.4 43.08 198.98 43.53 199.43 44.11 199.68 44.81 199.87 45.58 200 46.47 200.06 47.43 200 49.09 199.81 50.75 199.49 52.41 199.04 54.08 198.47 55.8 197.76 57.59 196.87 59.32 195.91 61.11 194.82 62.9 193.67 64.5 192.59 65.84 191.44 66.86"/><polygon class="cls-4" points="191.44 45 191.44 42.32 189.9 43.08 188.3 44.17 186.64 45.51 185.04 47.05 183.38 48.84 181.78 50.75 180.44 52.67 179.29 54.53 178.33 56.44 177.63 58.3 177.12 60.15 176.8 62.01 176.67 63.8 176.8 65.84 177.25 67.56 177.5 68.33 177.88 69.03 178.33 69.61 178.84 70.19 179.99 71.08 181.21 71.72 182.55 72.1 183.96 72.23 185.68 72.1 187.34 71.66 189.01 70.89 190.54 69.8 191.44 68.97 191.44 66.86 190.28 67.76 189.07 68.33 187.92 68.72 186.7 68.84 185.68 68.72 184.85 68.46 184.08 67.95 183.57 67.31 183.12 66.48 182.87 65.65 182.68 64.75 182.62 63.73 182.68 62.32 182.87 60.92 183.25 59.38 183.7 57.85 184.28 56.19 185.04 54.53 185.88 52.8 186.9 50.95 188.05 49.03 189.26 47.37 190.48 45.96 191.44 45"/><path class="cls-3" d="M260.42,52.85c0-1.28,0-2.45,0-3.51s-.07-2.13-.13-3.18c-.06-.6-.1-1.1-.15-1.51a9,9,0,0,0-.17-1.09c-.07-.31-.15-.6-.23-.85s-.19-.53-.3-.81a2.21,2.21,0,0,0,.51.08l.86.09q.47,0,1,.06c.34,0,.66,0,.94,0a16.13,16.13,0,0,0,1.74-.08l1.65-.17c-.08.17-.17.36-.25.57a7,7,0,0,0-.28.94c-.1.41-.2,1-.3,1.66s-.19,1.59-.26,2.67-.12,2.4-.17,4-.06,3.44-.06,5.63c0,1.5,0,2.79,0,3.86s0,2,.07,2.87.06,1.64.1,2.37.09,1.48.15,2.28q1.11.21,2.28.36a25.36,25.36,0,0,0,3.09.15,23.93,23.93,0,0,0,3.13-.17,10.5,10.5,0,0,0,2-.45,4.52,4.52,0,0,0,1.32-.66c.34-.26.67-.52,1-.81-.11.6-.21,1.1-.28,1.51s-.13.81-.19,1.18-.11.75-.15,1.15-.09.86-.15,1.4l-1.87-.08-1.73-.09c-.61,0-1.32,0-2.13,0h-6.33c-.86,0-1.61,0-2.26,0l-1.82.09-1.93.08a9.42,9.42,0,0,0,.55-1.19,6.69,6.69,0,0,0,.35-1.49q.12-.81.21-2c.06-.79.1-1.59.13-2.43s.05-1.67.06-2.5,0-1.54,0-2.17Z"/><path class="cls-3" d="M288,48.8c.34-1,.62-1.88.85-2.58s.4-1.29.53-1.79.24-.93.32-1.3a9.79,9.79,0,0,0,.21-1.15l1.79.17q.9.09,1.8.09a16.81,16.81,0,0,0,1.72-.09l1.73-.17c.17.86.33,1.61.49,2.26s.32,1.31.49,2,.37,1.35.62,2.09.53,1.62.87,2.64l3.84,11.56q.46,1.23,1,2.91c.37,1.13.71,2.1,1,2.92s.48,1.33.68,1.77.38.81.54,1.11a3.26,3.26,0,0,0,.46.7l.49.52c-.56-.09-1.15-.16-1.74-.22s-1.18-.08-1.75-.08-1.13,0-1.68.08-1.12.13-1.69.22c0-.15.06-.31.09-.49a3.69,3.69,0,0,0,0-.58,6.42,6.42,0,0,0-.26-1.6c-.17-.67-.36-1.41-.59-2.24l-1.28-4.17c-1.85-.17-3.68-.26-5.5-.26-1,0-2,0-3,.09l-3,.17L286.08,67l-.6,2.24c-.14.55-.25,1-.34,1.3a6.1,6.1,0,0,0-.15.7c0,.16,0,.31,0,.45V72c0,.08,0,.24,0,.47l-1.47-.17a12.63,12.63,0,0,0-3,0l-1.49.17c.42-.68.78-1.28,1.06-1.79s.57-1.1.86-1.75.59-1.44.93-2.36.77-2.13,1.28-3.61Zm7.33,3.67c-.17-.63-.33-1.18-.47-1.66l-.41-1.41c-.12-.45-.24-.93-.36-1.43s-.25-1.08-.42-1.77c-.06-.31-.13-.6-.2-.87s-.13-.55-.19-.83l-5,15.3c.77.06,1.54.1,2.33.13s1.56,0,2.36,0,1.54,0,2.32,0,1.56-.07,2.33-.13Z"/><path class="cls-3" d="M311.91,54.81c0-1.82,0-3.39,0-4.71s-.05-2.48-.11-3.47a17.57,17.57,0,0,0-.32-2.6,12.38,12.38,0,0,0-.62-2.09l1.58.15c.48,0,1.08.06,1.79.06.54,0,1.08,0,1.62,0l1.75,0,2.09,0,2.68-.07,1.71,0a9.45,9.45,0,0,1,1.85.23,8,8,0,0,1,3.73,2,6.84,6.84,0,0,1,1,1.32,6,6,0,0,1,.6,1.34,7.86,7.86,0,0,1,.26,1.28c0,.42.06.78.06,1.09a7.91,7.91,0,0,1-.36,2.3,6.21,6.21,0,0,1-1.47,2.39,7.37,7.37,0,0,1-1.52,1.17,8.66,8.66,0,0,1-1.59.72,9.62,9.62,0,0,1-1.62.41c-.54.08-1.08.16-1.62.21l1.81.19a13.8,13.8,0,0,1,2,.39,8.43,8.43,0,0,1,2,.83,6.67,6.67,0,0,1,1.75,1.45,5.49,5.49,0,0,1,1.19,2.49,12.76,12.76,0,0,1,.21,1.94,11.55,11.55,0,0,1-.34,2.52,7.32,7.32,0,0,1-1.41,2.85,8.69,8.69,0,0,1-3.06,2.35,12.18,12.18,0,0,1-5.29,1c-.71,0-1.33,0-1.87,0s-1.07,0-1.58-.06-1,0-1.58-.06-1.16,0-1.87,0-1.21,0-1.92,0l-2.81.13c.42-.49.73-1.75.91-3.8s.28-4.66.28-7.84Zm4.35,0c1,.12,1.83.18,2.59.2l1.69,0a5.31,5.31,0,0,0,.81-.07c.31,0,.65-.1,1-.17a8,8,0,0,0,1.07-.28,6.77,6.77,0,0,0,1-.38A4.14,4.14,0,0,0,325.78,53a4.38,4.38,0,0,0,.72-1.23,4.63,4.63,0,0,0,.3-1.22,8.06,8.06,0,0,0,.07-1,5.3,5.3,0,0,0-.51-2.49,4,4,0,0,0-1.42-1.52,5.82,5.82,0,0,0-2.09-.74,15.75,15.75,0,0,0-2.53-.19c-.66,0-1.28,0-1.86,0l-2.08.13c-.05.68-.09,1.5-.1,2.45s0,2,0,3.09Zm0,11.43c0,.51,0,.94,0,1.3a2.89,2.89,0,0,0,.23.93,1.77,1.77,0,0,0,.62.69,3.83,3.83,0,0,0,1.2.44,8.23,8.23,0,0,0,1.07.13c.43,0,.8,0,1.11,0a8,8,0,0,0,5.16-1.55,5.23,5.23,0,0,0,1.95-4.33,5.75,5.75,0,0,0-.8-3.26,4.75,4.75,0,0,0-1.94-1.72,7.37,7.37,0,0,0-2.42-.69c-.84-.08-1.56-.13-2.16-.13l-1.54,0-2.52.06Z"/><path class="cls-3" d="M342.34,57.67c-.51-.29-1-.61-1.62-1a8.09,8.09,0,0,1-1.58-1.37,6.66,6.66,0,0,1-1.19-2,7.36,7.36,0,0,1-.47-2.77,8.38,8.38,0,0,1,.79-3.66,8.12,8.12,0,0,1,2.24-2.84A10.49,10.49,0,0,1,344,42.28a15.33,15.33,0,0,1,4.52-.64,14.35,14.35,0,0,1,2.15.19l1.86.32,1.17.22.72.12.49.07.47.06c-.14.54-.25,1-.34,1.41s-.15.77-.21,1.13a9.77,9.77,0,0,0-.11,1.15q0,.61-.06,1.47l-.85-.83a7.07,7.07,0,0,0-1.28-.94,8.41,8.41,0,0,0-4.31-1.09,7.61,7.61,0,0,0-2.66.43,5.48,5.48,0,0,0-1.86,1.11A4.44,4.44,0,0,0,342.62,48a4.57,4.57,0,0,0-.37,1.73,3.9,3.9,0,0,0,.39,1.79,4.56,4.56,0,0,0,1,1.34,6.66,6.66,0,0,0,1.41,1c.52.28,1,.55,1.55.8l2,.94c.88.43,1.74.86,2.58,1.3a11.39,11.39,0,0,1,2.26,1.54,6.45,6.45,0,0,1,1.59,2.09,6.53,6.53,0,0,1,.6,2.92,8.88,8.88,0,0,1-.66,3.4,8.29,8.29,0,0,1-1.94,2.86,10.77,10.77,0,0,1-3.28,2,14.91,14.91,0,0,1-5.71.92c-.91,0-1.84,0-2.77-.13-.57-.06-1.05-.11-1.45-.17s-.77-.13-1.11-.21-.68-.19-1-.3-.73-.26-1.15-.43c.14-.4.25-.75.34-1.06s.16-.64.23-1,.14-.74.21-1.2.15-1,.24-1.74c.28.34.59.69.92,1a5.2,5.2,0,0,0,1.23,1,6.7,6.7,0,0,0,1.81.72,10.67,10.67,0,0,0,2.69.28,9.32,9.32,0,0,0,2.92-.4,6,6,0,0,0,2-1.09,4.24,4.24,0,0,0,1.2-1.58,4.65,4.65,0,0,0,.38-1.83,3.57,3.57,0,0,0-.43-1.79,4.72,4.72,0,0,0-1.13-1.36,8.27,8.27,0,0,0-1.57-1.05q-.88-.45-1.77-.87Z"/><path class="cls-5" d="M110.89,54A50.4,50.4,0,1,1,60.49,3.6,50.4,50.4,0,0,1,110.89,54"/><polygon class="cls-4" points="88.35 47.37 89.31 45.96 90.08 44.68 90.66 43.47 91.1 41.93 92.96 42.06 94.81 42.13 96.54 42.06 98.14 41.93 95.64 44.81 92.25 49.16 86.5 56.83 92.13 64.88 93.72 67.18 95.45 69.35 96.54 70.69 98.2 72.3 95.96 71.97 93.79 71.85 91.68 71.97 89.5 72.3 89.25 71.21 88.8 70.12 88.1 68.72 86.89 66.73 83.24 61.11 78.57 67.89 77.62 69.23 77.04 70.31 76.59 71.21 76.34 72.23 74.36 72.04 72.44 71.91 70.65 71.97 68.86 72.23 69.95 71.34 70.65 70.63 71.42 69.74 74.36 66.09 80.81 57.53 75.76 50.05 72.38 45.38 70.97 43.72 69.24 41.93 71.48 42.13 73.72 42.25 75.95 42.13 78.19 41.93 78.06 42.51 78.13 43.15 78.45 43.91 79.85 46.41 84.07 53.18 88.35 47.37"/><polygon class="cls-4" points="24 53.31 23.81 47.11 23.62 44.88 23.3 42.96 22.85 41.81 24.51 42 26.18 42.06 27.84 42 29.5 41.81 28.86 43.53 28.67 44.36 28.54 45.45 28.35 48.39 28.29 53.25 28.29 56.44 28.29 61.81 28.41 67.06 28.54 68.97 28.73 70.31 28.99 71.28 29.43 72.3 27.77 72.1 26.11 72.04 24.45 72.1 22.79 72.3 23.17 71.53 23.43 70.57 23.62 69.16 23.81 67.06 23.94 61.81 24 56.51 24 53.31"/><polygon class="cls-4" points="49.42 66.86 49.42 68.97 50 68.46 51.4 66.99 52.81 65.26 54.09 63.41 53.45 66.8 53.26 69.03 53.38 69.99 53.64 70.76 54.02 71.4 54.66 71.91 55.43 72.17 56.26 72.3 56.96 72.23 57.67 72.1 58.43 71.78 59.2 71.46 60.8 70.38 62.46 68.91 64.25 67.05 65.66 65.2 66.11 64.5 65.33 63.73 63.74 65.65 62.52 66.93 61.69 67.69 60.93 68.2 60.29 68.52 59.77 68.65 59.39 68.59 58.95 68.39 58.75 68.2 58.62 67.95 58.5 67.18 58.62 66.42 58.82 65.39 63.23 49.48 69.62 25.51 69.68 25.12 69.36 24.8 63.42 25.82 58.95 26.53 58.95 27.61 60.22 27.49 61.25 27.49 62.08 27.55 62.65 27.81 62.84 28.06 63.03 28.38 63.16 29.47 63.1 30.24 62.84 31.26 59.07 44.94 58.62 43.47 58.37 42.89 58.05 42.45 57.41 41.87 56.58 41.48 55.56 41.23 54.34 41.17 52.74 41.29 51.15 41.68 49.55 42.25 49.42 42.32 49.42 45 49.68 44.81 50.89 43.91 52.17 43.27 53.38 42.89 54.66 42.76 55.62 42.83 56.39 43.08 56.96 43.53 57.41 44.11 57.67 44.81 57.86 45.58 57.98 46.47 58.05 47.43 57.98 49.09 57.8 50.75 57.48 52.41 57.03 54.08 56.45 55.8 55.75 57.59 54.85 59.32 53.9 61.11 52.81 62.9 51.66 64.5 50.57 65.84 49.42 66.86"/><polygon class="cls-4" points="49.42 45 49.42 42.32 47.89 43.08 46.29 44.17 44.63 45.51 43.03 47.05 41.37 48.84 39.77 50.75 38.43 52.67 37.28 54.53 36.32 56.44 35.61 58.3 35.1 60.15 34.78 62.01 34.65 63.8 34.78 65.84 35.23 67.56 35.49 68.33 35.87 69.03 36.32 69.61 36.83 70.19 37.98 71.08 39.19 71.72 40.53 72.1 41.94 72.23 43.67 72.1 45.33 71.66 46.99 70.89 48.53 69.8 49.42 68.97 49.42 66.86 48.27 67.76 47.06 68.33 45.9 68.72 44.69 68.84 43.67 68.72 42.84 68.46 42.07 67.95 41.56 67.31 41.11 66.48 40.86 65.65 40.66 64.75 40.6 63.73 40.66 62.32 40.86 60.92 41.24 59.38 41.69 57.85 42.26 56.19 43.03 54.53 43.86 52.8 44.88 50.95 46.03 49.03 47.25 47.37 48.46 45.96 49.42 45"/><line class="cls-6" x1="131.5" y1="17.5" x2="131.5" y2="94"/></g></svg>